<svg aria-hidden="true" style="position: absolute; width: 0; height: 0; overflow: hidden;" version="1.1" xmlns="http://www.w3.org/2000/svg" xmlns:xlink="http://www.w3.org/1999/xlink">
<defs>
<symbol id="icon-logo" viewBox="0 0 32 32">
<path d="M29.082 0.314h-4.009c-1.237 0-2.24 0.983-2.24 2.195v3.929c0 1.212 1.003 2.195 2.24 2.195h4.009c1.237 0 2.24-0.983 2.24-2.195v-3.929c0-1.212-1.003-2.195-2.24-2.195z"></path>
<path d="M6.73 23.040h-4.318c-1.332 0-2.412 0.983-2.412 2.195v3.929c0 1.213 1.080 2.195 2.412 2.195h4.318c1.332 0 2.412-0.983 2.412-2.195v-3.929c0-1.212-1.080-2.195-2.412-2.195z"></path>
<path d="M6.25 11.582h-4.009c-1.237 0-2.24 0.983-2.24 2.195v3.929c0 1.212 1.003 2.195 2.24 2.195h4.009c1.237 0 2.24-0.983 2.24-2.195v-3.929c0-1.212-1.003-2.195-2.24-2.195z"></path>
<path d="M17.766 22.978h-4.009c-1.237 0-2.24 0.983-2.24 2.195l-0 3.929c0 1.212 1.003 2.195 2.241 2.195h4.009c1.237 0 2.24-0.983 2.24-2.195v-3.929c0-1.212-1.003-2.195-2.24-2.195z"></path>
<path d="M6.25 0.086h-4.009c-1.237 0-2.24 0.983-2.24 2.195v3.929c0 1.212 1.003 2.195 2.24 2.195h4.009c1.237 0 2.24-0.983 2.24-2.195v-3.929c0-1.212-1.003-2.195-2.24-2.195z"></path>
<path d="M18.076 11.697h-4.009c-1.237 0-2.24 0.983-2.24 2.195v3.929c0 1.212 1.003 2.195 2.24 2.195h4.009c1.237 0 2.24-0.983 2.24-2.195v-3.929c0-1.212-1.003-2.195-2.24-2.195z"></path>
<path d="M29.333 22.978h-4.010c-1.237 0-2.24 0.983-2.24 2.195v3.929c0 1.212 1.003 2.195 2.24 2.195h4.009c1.237 0 2.24-0.983 2.24-2.195v-3.929c0-1.212-1.003-2.195-2.24-2.195z"></path>
<path d="M17.591 0.224h-4.009c-1.237 0-2.24 0.983-2.24 2.195v3.929c0 1.212 1.003 2.195 2.24 2.195h4.009c1.237 0 2.24-0.984 2.24-2.196v-3.929c0-1.212-1.003-2.195-2.24-2.195z"></path>
<path d="M29.044 11.926h-4.010c-1.237 0-2.24 0.983-2.24 2.195v3.929c0 1.212 1.003 2.195 2.24 2.195h4.009c1.237 0 2.24-0.983 2.24-2.195v-3.929c0-1.212-1.003-2.195-2.24-2.195z"></path>
</symbol>
<symbol id="icon-logout" viewBox="0 0 32 32">
<path fill="#fff" style="fill: var(--color3, #fff)" d="M8 2.66c-1.080 0-2.080 0.42-2.84 1.16-0.74 0.76-1.16 1.78-1.16 2.84v18.66c0 1.060 0.42 2.080 1.16 2.84 0.76 0.74 1.76 1.16 2.84 1.16h8c1.060 0 2.060-0.42 2.82-1.16 0.74-0.76 1.18-1.78 1.18-2.84v-18.66c0-1.060-0.44-2.080-1.18-2.84-0.76-0.74-1.76-1.16-2.82-1.16h-8zM21.72 9.72c0.24-0.26 0.58-0.4 0.94-0.4s0.68 0.14 0.94 0.4l5.34 5.32c0.24 0.26 0.38 0.6 0.38 0.96 0 0.34-0.14 0.68-0.38 0.94l-5.34 5.32c-0.26 0.24-0.58 0.38-0.94 0.38-0.34 0-0.68-0.14-0.92-0.4-0.26-0.24-0.4-0.58-0.4-0.92 0-0.36 0.14-0.68 0.38-0.94l3.060-3.060h-11.46c-0.36 0-0.68-0.14-0.94-0.38-0.24-0.26-0.38-0.6-0.38-0.94 0-0.36 0.14-0.7 0.38-0.96 0.26-0.24 0.58-0.38 0.94-0.38h11.46l-3.060-3.060c-0.26-0.26-0.4-0.58-0.4-0.94s0.14-0.7 0.4-0.94z"></path>
</symbol>
<symbol id="icon-filter" viewBox="0 0 32 32">
<path fill="none" stroke="#fff" style="stroke: var(--color3, #fff)" stroke-linejoin="round" stroke-linecap="butt" stroke-miterlimit="4" stroke-width="3.4286" d="M2.651 4l10.674 12.594v8.731l5.326 2.674v-11.406l10.674-12.594h-26.674z"></path>
</symbol>
<symbol id="icon-plus" viewBox="0 0 32 32">
<path fill="none"  stroke-linejoin="round" stroke-linecap="round" stroke-miterlimit="4" stroke-width="2.4" d="M16 6.667v18.667"></path>
<path fill="none"  stroke-linejoin="round" stroke-linecap="round" stroke-miterlimit="4" stroke-width="2.4" d="M6.667 16h18.667"></path>
</symbol>
<symbol id="icon-ic_round-dashboard" viewBox="0 0 32 32">
<path d="M5.32 17.32h8c0.74 0 1.34-0.6 1.34-1.32v-10.68c0-0.72-0.6-1.32-1.34-1.32h-8c-0.72 0-1.32 0.6-1.32 1.32v10.68c0 0.72 0.6 1.32 1.32 1.32zM5.32 28h8c0.74 0 1.34-0.6 1.34-1.34v-5.34c0-0.72-0.6-1.32-1.34-1.32h-8c-0.72 0-1.32 0.6-1.32 1.32v5.34c0 0.74 0.6 1.34 1.32 1.34zM18.66 28h8c0.74 0 1.34-0.6 1.34-1.34v-10.66c0-0.74-0.6-1.34-1.34-1.34h-8c-0.74 0-1.34 0.6-1.34 1.34v10.66c0 0.74 0.6 1.34 1.34 1.34zM17.32 5.32v5.34c0 0.72 0.6 1.34 1.34 1.34h8c0.74 0 1.34-0.62 1.34-1.34v-5.34c0-0.72-0.6-1.32-1.34-1.32h-8c-0.74 0-1.34 0.6-1.34 1.32z"></path>
</symbol>
<symbol id="icon-ic_round-shopping-cart" viewBox="0 0 32 32">
<path d="M9.32 24c-1.46 0-2.66 1.2-2.66 2.66s1.2 2.66 2.66 2.66c1.46 0 2.68-1.2 2.68-2.66s-1.22-2.66-2.68-2.66zM1.32 4c0 0.72 0.6 1.32 1.34 1.32h1.34l4.78 10.12-1.78 3.26c-0.98 1.78 0.3 3.96 2.32 3.96h14.68c0.72 0 1.32-0.6 1.32-1.34 0-0.72-0.6-1.32-1.32-1.32h-14.68l1.46-2.68h9.94c1 0 1.88-0.54 2.34-1.38l4.76-8.64c0.12-0.2 0.18-0.44 0.18-0.66 0-0.24-0.060-0.46-0.18-0.66s-0.3-0.36-0.5-0.48c-0.2-0.12-0.42-0.18-0.64-0.18h-19.74l-0.9-1.9c-0.1-0.24-0.28-0.42-0.48-0.56-0.22-0.14-0.46-0.2-0.72-0.2h-2.18c-0.74 0-1.34 0.6-1.34 1.34zM22.66 24c-1.46 0-2.66 1.2-2.66 2.66s1.2 2.66 2.66 2.66c1.46 0 2.66-1.2 2.66-2.66s-1.2-2.66-2.66-2.66z"></path>
</symbol>
<symbol id="icon-mingcute_flask-fill" viewBox="0 0 32 32">
<path d="M20 12.84v-7.52h1.32c0.36 0 0.7-0.14 0.94-0.38 0.26-0.26 0.4-0.6 0.4-0.94 0-0.36-0.14-0.7-0.4-0.96-0.24-0.24-0.58-0.38-0.94-0.38h-10.66c-0.36 0-0.7 0.14-0.94 0.38-0.26 0.26-0.4 0.6-0.4 0.96 0 0.34 0.14 0.68 0.4 0.94 0.24 0.24 0.58 0.38 0.94 0.38h1.34v7.52l-6.98 10.24c-1.8 2.64 0.1 6.24 3.3 6.24h15.34c3.2 0 5.1-3.6 3.3-6.24l-6.96-10.24z"></path>
</symbol>
<symbol id="icon-mdi_local-pharmacy" viewBox="0 0 32 32">
<path d="M21.32 18.66h-4v4h-2.66v-4h-4v-2.66h4v-4h2.66v4h4v2.66zM28 6.66h-3.54l1.54-4.2-3.14-1.14-1.94 5.34h-16.92v2.66l2.66 8-2.66 8v2.68h24v-2.68l-2.68-8 2.68-8v-2.66z"></path>
</symbol>
<symbol id="icon-mdi_users" viewBox="0 0 32 32">
<path d="M21.32 22.66v2.66h-18.66v-2.66c0 0 0-5.34 9.34-5.34 9.32 0 9.32 5.34 9.32 5.34zM16.66 10c0-0.94-0.28-1.84-0.78-2.6-0.52-0.78-1.26-1.36-2.1-1.72-0.86-0.36-1.8-0.44-2.7-0.26s-1.74 0.62-2.38 1.28c-0.66 0.64-1.1 1.48-1.28 2.38s-0.1 1.84 0.26 2.7c0.36 0.84 0.94 1.58 1.72 2.1 0.76 0.5 1.66 0.78 2.6 0.78 1.22 0 2.42-0.5 3.28-1.38 0.88-0.86 1.38-2.060 1.38-3.28zM21.24 17.32c0.82 0.64 1.5 1.44 1.96 2.36 0.48 0.92 0.74 1.94 0.8 2.98v2.66h5.32v-2.66c0 0 0-4.84-8.080-5.34zM20 5.32c-0.92 0-1.82 0.28-2.58 0.8 0.8 1.12 1.24 2.48 1.24 3.88 0 1.38-0.44 2.74-1.24 3.88 0.76 0.5 1.66 0.78 2.58 0.78 1.22 0 2.42-0.5 3.28-1.38 0.88-0.86 1.38-2.060 1.38-3.28 0-1.24-0.5-2.44-1.38-3.3-0.86-0.88-2.060-1.38-3.28-1.38z"></path>
</symbol>
<symbol id="icon-Vector" viewBox="0 0 32 32">
<path fill="none"  stroke-linejoin="round" stroke-linecap="round" stroke-miterlimit="4" stroke-width="3.6923" d="M14.769 29.538v0zM29.538 14.769lNaNNaN"></path>
</symbol>
<symbol id="icon-drop" viewBox="0 0 32 32">
<path d="M16 22.003l-10-10 1.4-1.4 8.6 8.6 8.6-8.6 1.4 1.4-10 10z"></path>
<path d="M7.4 10.603l-1.4 1.4 10 10 10-10-1.4-1.4-8.6 8.6-8.6-8.6z"></path>
</symbol>
<symbol id="icon-Prev" viewBox="0 0 32 32">
<path d="M20.12 24l1.88-1.88-6.107-6.12 6.107-6.12-1.88-1.88-8 8 8 8z"></path>
</symbol>
<symbol id="icon-finance" viewBox="0 0 32 32">
<path stroke-linejoin="round" stroke-linecap="butt" stroke-miterlimit="4" stroke-width="2.4" d="M20.56 17.136c-5.68 0-10.288-2.048-10.288-4.576s4.608-4.56 10.288-4.56c5.68 0 10.288 2.032 10.288 4.56s-4.608 4.576-10.288 4.576z"></path>
<path stroke-linejoin="round" stroke-linecap="round" stroke-miterlimit="4" stroke-width="2.4" d="M10.272 12.56v13.712c0 2.528 4.576 4.576 10.288 4.576s10.288-2.048 10.288-4.576lNaNNaN"></path>
<path stroke-linejoin="round" stroke-linecap="butt" stroke-miterlimit="4" stroke-width="2.4" d="M30.848 19.424c0 2.512-4.576 4.576-10.288 4.576s-10.288-2.064-10.288-4.576M20.336 3.424c-2.672-1.648-5.776-2.448-8.912-2.288-5.696 0-10.288 2.064-10.288 4.576-1.114-5.574-1.088-5.55NaNNaNlNaNNaN"></path>
<path stroke-linejoin="round" stroke-linecap="round" stroke-miterlimit="4" stroke-width="2.4" d="M4.56 22.848c-2.096-0.864-3.424-2.080-3.424-3.424lNaNNaN"></path>
<path stroke-linejoin="round" stroke-linecap="round" stroke-miterlimit="4" stroke-width="2.4" d="M4.56 16c-4.512-15.705-4.538-15.728NaNNaNlNaNNaN"></path>
</symbol>
<symbol id="icon-Vector-1" viewBox="0 0 32 32">
<path stroke-linejoin="round" stroke-linecap="butt" stroke-miterlimit="4" stroke-width="2.8235" d="M29.176 26.654c0-2.729-2.635-5.045-6.287-5.911M19.765 26.654c0-3.464-4.216-6.268-9.412-6.268-5.214 0-9.412 2.805-9.412 6.268M19.765 15.68c1.656 0 3.256-0.659 4.424-1.845 1.186-1.167 1.845-2.767 1.845-4.424 0-1.675-0.659-3.275-1.845-4.442-1.167-1.186-2.767-1.845-4.424-1.845M5.911 13.835c-1.186-1.167-1.845-2.767-1.845-4.424 0-1.675 0.659-3.275 1.845-4.442 1.167-1.186 2.767-1.845 4.442-1.845 1.656 0 3.256 0.659 4.424 1.845 1.186 1.167 1.845 2.767 1.845 4.442 0 1.656-0.659 3.256-1.845 4.424-1.167 1.186-2.767 1.845-4.424 1.845-1.675 0-3.275-0.659-4.442-1.845z"></path>
</symbol>
<symbol id="icon-x" viewBox="0 0 32 32">
<path fill="none"   stroke-linejoin="round" stroke-linecap="round" stroke-miterlimit="4" stroke-width="2.5" d="M24 8l-16 16"></path>
<path fill="none"   stroke-linejoin="round" stroke-linecap="round" stroke-miterlimit="4" stroke-width="2.5" d="M8 8l16 16"></path>
</symbol>
<symbol id="icon-iconamoon_menu-burger-horizontal-duotone" viewBox="0 0 32 32">
<path stroke-linejoin="round" stroke-linecap="butt" stroke-miterlimit="4" stroke-width="2" d="M4 8h24M4 16h24M4 24lNaNNaN"></path>
</symbol>
<symbol id="icon-pen" viewBox="0 0 32 32">
<path fill="none" stroke="#59b17a" style="stroke: var(--color2, #59b17a)" stroke-linejoin="round" stroke-linecap="butt" stroke-miterlimit="4" stroke-width="2.7733" d="M23.339 1.259c0.491-0.213 1.024-0.32 1.536-0.32 0.533 0 1.067 0.107 1.536 0.32 0.491 0.192 0.939 0.491 1.323 0.875 0.363 0.363 0.661 0.811 0.875 1.301 0.192 0.491 0.299 1.003 0.299 1.536s-0.107 1.045-0.299 1.536c-0.213 0.491-0.512 0.939-0.875 1.301l-19.2 19.2-7.829 2.133 2.133-7.808 19.2-19.2c0.363-0.384 0.811-0.683 1.301-0.875z"></path>
</symbol>
<symbol id="icon-Slide-01" viewBox="0 0 29 32">
<path d="M30.507 16c0 8.745-7.090 15.835-15.835 15.835s-15.835-7.090-15.835-15.835c0-8.745 7.090-15.835 15.835-15.835s15.835 7.090 15.835 15.835z"></path>
</symbol>
<symbol id="icon-trash-2-1" viewBox="0 0 32 32">
<path fill="none" stroke="#e85050" style="stroke: var(--color1, #e85050)" stroke-linejoin="round" stroke-linecap="round" stroke-miterlimit="4" stroke-width="2.6" d="M4 8h2.66lNaNNaN"></path>
<path fill="none" stroke="#e85050" style="stroke: var(--color1, #e85050)" stroke-linejoin="round" stroke-linecap="butt" stroke-miterlimit="4" stroke-width="2.6" d="M25.32 7.98v18.68c0 0.7-0.28 1.38-0.78 1.88s-1.18 0.78-1.88 0.78h-13.34c-0.7 0-1.38-0.28-1.88-0.78s-0.78-1.18-0.78-1.88v-18.68M10.66 7.98v-2.66c0-0.7 0.28-1.38 0.78-1.88s1.18-0.78 1.88-0.78h5.34c0.7 0 1.38 0.28 1.88 0.78s0.78 1.18 0.78 1.88lNaNNaN"></path>
<path fill="none" stroke="#e85050" style="stroke: var(--color1, #e85050)" stroke-linejoin="round" stroke-linecap="round" stroke-miterlimit="4" stroke-width="2.6" d="M13.32 14.66lNaNNaN"></path>
<path fill="none" stroke="#e85050" style="stroke: var(--color1, #e85050)" stroke-linejoin="round" stroke-linecap="round" stroke-miterlimit="4" stroke-width="2.6" d="M18.66 14.66lNaNNaN"></path>
</symbol>
</defs>
</svg>
